<svg width="24" height="24" viewBox="0 0 24 24" fill="none" xmlns="http://www.w3.org/2000/svg">
<path d="M12.0002 21.2727C14.3735 21.2727 16.4445 20.4886 18.2132 18.9205C19.982 17.3523 21.0231 15.375 21.3365 12.9886C21.3813 12.625 21.538 12.3236 21.8067 12.0845C22.0754 11.8455 22.3888 11.7264 22.7471 11.7273C23.1277 11.7273 23.4411 11.8923 23.6874 12.2223C23.9337 12.5523 24.0344 12.9214 23.9897 13.3295C23.609 16.3977 22.2823 18.9432 20.0093 20.9659C17.7363 22.9886 15.0666 24 12.0002 24C8.95525 24 6.2963 22.9945 4.02334 20.9836C1.75038 18.9727 0.412841 16.4327 0.0107292 13.3636C-0.0340494 12.9318 0.0613291 12.5509 0.296864 12.2209C0.5324 11.8909 0.851223 11.7264 1.25334 11.7273C1.61156 11.7273 1.92501 11.8468 2.19369 12.0859C2.46236 12.325 2.61908 12.6259 2.66386 12.9886C2.97731 15.375 4.01841 17.3523 5.78717 18.9205C7.55592 20.4886 9.62693 21.2727 12.0002 21.2727ZM13.3436 4.67046L13.3436 14.4545C13.3436 14.8409 13.2146 15.165 12.9567 15.4268C12.6987 15.6886 12.3799 15.8191 12.0002 15.8182C11.6196 15.8182 11.3003 15.6873 11.0424 15.4255C10.7845 15.1636 10.6559 14.84 10.6568 14.4545L10.6568 4.67046L8.13804 7.22727C7.86937 7.5 7.5501 7.63636 7.18023 7.63636C6.81036 7.63636 6.49153 7.5 6.22376 7.22727C5.95509 6.95455 5.82075 6.63636 5.82075 6.27273C5.82075 5.90909 5.95509 5.59091 6.22376 5.31818L11.0598 0.409091C11.3285 0.136363 11.642 -5.08887e-07 12.0002 -5.24545e-07C12.3584 -5.40204e-07 12.6719 0.136363 12.9405 0.409091L17.7766 5.31818C18.0453 5.59091 18.1743 5.90909 18.1635 6.27273C18.1528 6.63636 18.0126 6.95455 17.7431 7.22727C17.4744 7.5 17.1609 7.63636 16.8027 7.63636C16.4445 7.63636 16.131 7.5 15.8624 7.22727L13.3436 4.67046Z" fill="#D7D7D7"/>
</svg>
