<svg width="24" height="24" viewBox="0 0 24 24" fill="none" xmlns="http://www.w3.org/2000/svg">
<path d="M12.0002 21.2727C14.3735 21.2727 16.4445 20.4886 18.2132 18.9205C19.982 17.3523 21.0231 15.375 21.3365 12.9886C21.3813 12.625 21.538 12.3236 21.8067 12.0845C22.0754 11.8455 22.3888 11.7264 22.7471 11.7273C23.1277 11.7273 23.4411 11.8923 23.6874 12.2223C23.9337 12.5523 24.0344 12.9214 23.9897 13.3295C23.609 16.3977 22.2823 18.9432 20.0093 20.9659C17.7363 22.9886 15.0666 24 12.0002 24C8.95525 24 6.2963 22.9945 4.02334 20.9836C1.75038 18.9727 0.412841 16.4327 0.0107292 13.3636C-0.0340494 12.9318 0.0613291 12.5509 0.296864 12.2209C0.5324 11.8909 0.851223 11.7264 1.25334 11.7273C1.61156 11.7273 1.92501 11.8468 2.19369 12.0859C2.46236 12.325 2.61908 12.6259 2.66386 12.9886C2.97731 15.375 4.01841 17.3523 5.78717 18.9205C7.55592 20.4886 9.62693 21.2727 12.0002 21.2727Z" fill="#D7D7D7"/>
<path d="M10.6413 1.36364L10.6413 11.1477L8.12246 8.59091C7.85379 8.31819 7.54034 8.18182 7.18211 8.18182C6.82388 8.18182 6.51043 8.31819 6.24176 8.59091C5.9722 8.86364 5.83204 9.18182 5.82129 9.54546C5.81054 9.90909 5.93951 10.2273 6.20818 10.5L11.0443 15.4091C11.3129 15.6818 11.6264 15.8182 11.9846 15.8182C12.3428 15.8182 12.6563 15.6818 12.925 15.4091L17.7611 10.5C18.0297 10.2273 18.1641 9.90909 18.1641 9.54546C18.1641 9.18182 18.0297 8.86364 17.7611 8.59091C17.4933 8.31819 17.1745 8.18182 16.8046 8.18182C16.4347 8.18182 16.1154 8.31819 15.8468 8.59091L13.328 11.1477L13.328 1.36364C13.3289 0.978187 13.2004 0.654551 12.9424 0.392732C12.6845 0.130914 12.3652 4.46501e-06 11.9846 4.44837e-06C11.6049 -0.000904659 11.2861 0.129549 11.0281 0.391368C10.7702 0.653186 10.6413 0.977278 10.6413 1.36364Z" fill="#D7D7D7"/>
</svg>
