<svg width="24" height="24" viewBox="0 0 24 24" fill="none" xmlns="http://www.w3.org/2000/svg">
<path d="M16.4333 17.7C16.1889 17.4111 16.0667 17.0836 16.0667 16.7173C16.0667 16.3511 16.1889 16.0453 16.4333 15.8L18.9 13.3333H9.33333C8.95555 13.3333 8.63867 13.2053 8.38267 12.9493C8.12667 12.6933 7.99911 12.3769 8 12C8 11.6222 8.128 11.3053 8.384 11.0493C8.64 10.7933 8.95644 10.6658 9.33333 10.6667H18.9L16.4333 8.2C16.1667 7.93333 16.0333 7.61645 16.0333 7.24933C16.0333 6.88222 16.1667 6.56578 16.4333 6.3C16.6778 6.03333 16.9836 5.9 17.3507 5.9C17.7178 5.9 18.0231 6.02222 18.2667 6.26667L23.0667 11.0667C23.2 11.2 23.2947 11.3444 23.3507 11.5C23.4067 11.6556 23.4342 11.8222 23.4333 12C23.4333 12.1778 23.4058 12.3444 23.3507 12.5C23.2956 12.6556 23.2009 12.8 23.0667 12.9333L18.2667 17.7333C17.9778 18.0222 17.6609 18.1502 17.316 18.1173C16.9711 18.0844 16.6769 17.9453 16.4333 17.7ZM2.66667 24C1.93333 24 1.30533 23.7387 0.782668 23.216C0.260002 22.6933 -0.000886625 22.0658 2.26372e-06 21.3333V2.66667C2.26372e-06 1.93333 0.261336 1.30533 0.784002 0.782668C1.30667 0.260002 1.93422 -0.000886625 2.66667 2.26372e-06H10.6667C11.0444 2.26372e-06 11.3613 0.128002 11.6173 0.384002C11.8733 0.640002 12.0009 0.956446 12 1.33334C12 1.71111 11.872 2.028 11.616 2.284C11.36 2.54 11.0436 2.66756 10.6667 2.66667H2.66667V21.3333H10.6667C11.0444 21.3333 11.3613 21.4613 11.6173 21.7173C11.8733 21.9733 12.0009 22.2898 12 22.6667C12 23.0444 11.872 23.3613 11.616 23.6173C11.36 23.8733 11.0436 24.0009 10.6667 24H2.66667Z" fill="#D7D7D7"/>
</svg>
