<svg width="24" height="14" viewBox="0 0 24 14" fill="none" xmlns="http://www.w3.org/2000/svg">
<path d="M0.337165 13.6379C0.112388 13.4167 0 13.1399 0 12.8076C0 12.4753 0.112388 12.1888 0.337165 11.9483L7.69349 4.64655C7.81609 4.54598 7.94891 4.46552 8.09195 4.40517C8.23499 4.34483 8.38825 4.31466 8.55172 4.31466C8.7152 4.31466 8.87336 4.34483 9.02621 4.40517C9.17905 4.46552 9.30697 4.54598 9.40996 4.64655L13.4559 8.62931L19.8314 2.4138H17.8697C17.5223 2.4138 17.231 2.29793 16.9956 2.06621C16.7602 1.83449 16.6429 1.54805 16.6437 1.2069C16.6437 0.864946 16.7614 0.578108 16.9968 0.346384C17.2322 0.11466 17.5232 -0.000800421 17.8697 4.1761e-06H22.7739C23.1213 4.1761e-06 23.4127 0.115866 23.6481 0.34759C23.8835 0.579314 24.0008 0.865751 24 1.2069V6.03448C24 6.37644 23.8823 6.66328 23.6469 6.895C23.4115 7.12673 23.1205 7.24219 22.7739 7.24138C22.4266 7.24138 22.1352 7.12552 21.8998 6.89379C21.6644 6.66207 21.5471 6.37563 21.5479 6.03448V4.10345L14.3142 11.2241C14.1916 11.3448 14.0587 11.4305 13.9157 11.4812C13.7727 11.5319 13.6194 11.5568 13.4559 11.556C13.2925 11.556 13.1392 11.5311 12.9962 11.4812C12.8531 11.4313 12.7203 11.3456 12.5977 11.2241L8.55172 7.24138L2.02299 13.6681C1.79821 13.8894 1.52235 14 1.1954 14C0.868455 14 0.582376 13.8793 0.337165 13.6379Z" fill="#D7D7D7"/>
</svg>
