<svg width="24" height="23" viewBox="0 0 24 23" fill="none" xmlns="http://www.w3.org/2000/svg">
<path d="M1.33334 23C0.95556 23 0.638671 22.8701 0.382671 22.6103C0.126671 22.3506 -0.000884275 22.0295 4.61361e-06 21.6471C4.61361e-06 21.2637 0.128005 20.9422 0.384005 20.6824C0.640005 20.4226 0.956449 20.2932 1.33334 20.2941H14.6667C15.0444 20.2941 15.3613 20.424 15.6173 20.6838C15.8733 20.9435 16.0009 21.2646 16 21.6471C16 22.0304 15.872 22.3519 15.616 22.6117C15.36 22.8715 15.0436 23.0009 14.6667 23H1.33334ZM17.3333 13.5294C15.4889 13.5294 13.9164 12.8696 12.616 11.5501C11.3156 10.2305 10.6658 8.63537 10.6667 6.76471C10.6667 4.89314 11.3169 3.29757 12.6173 1.978C13.9178 0.658432 15.4898 -0.000901036 17.3333 9.2414e-07C19.1778 9.2414e-07 20.7502 0.659785 22.0507 1.97935C23.3511 3.29892 24.0009 4.89404 24 6.76471C24 8.63627 23.3498 10.2318 22.0493 11.5514C20.7489 12.871 19.1769 13.5303 17.3333 13.5294ZM1.33334 12.1765C0.95556 12.1765 0.638671 12.0466 0.382671 11.7868C0.126671 11.5271 -0.000884275 11.206 4.61361e-06 10.8235C4.61361e-06 10.4402 0.128005 10.1186 0.384005 9.85888C0.640005 9.59912 0.956449 9.46969 1.33334 9.47059H8.4C8.55556 9.96667 8.73334 10.4402 8.93334 10.8912C9.13334 11.3422 9.37778 11.7706 9.66667 12.1765H1.33334ZM1.33334 17.5882C0.95556 17.5882 0.638671 17.4584 0.382671 17.1986C0.126671 16.9388 -0.000884275 16.6177 4.61361e-06 16.2353C4.61361e-06 15.852 0.128005 15.5304 0.384005 15.2706C0.640005 15.0109 0.956449 14.8814 1.33334 14.8824H12.5333C13.0444 15.198 13.5889 15.4632 14.1667 15.6779C14.7444 15.8925 15.3556 16.0445 16 16.1338V16.2353C16 16.6186 15.872 16.9402 15.616 17.1999C15.36 17.4597 15.0436 17.5891 14.6667 17.5882H1.33334ZM17.3333 10.8235C17.5111 10.8235 17.6667 10.7559 17.8 10.6206C17.9333 10.4853 18 10.3274 18 10.1471V6.08823C18 5.90784 17.9333 5.75 17.8 5.61471C17.6667 5.47941 17.5111 5.41176 17.3333 5.41176C17.1556 5.41176 17 5.47941 16.8667 5.61471C16.7333 5.75 16.6667 5.90784 16.6667 6.08823V10.1471C16.6667 10.3274 16.7333 10.4853 16.8667 10.6206C17 10.7559 17.1556 10.8235 17.3333 10.8235ZM17.3333 4.05882C17.5111 4.05882 17.6667 3.99118 17.8 3.85588C17.9333 3.72059 18 3.56275 18 3.38235C18 3.20196 17.9333 3.04412 17.8 2.90882C17.6667 2.77353 17.5111 2.70588 17.3333 2.70588C17.1556 2.70588 17 2.77353 16.8667 2.90882C16.7333 3.04412 16.6667 3.20196 16.6667 3.38235C16.6667 3.56275 16.7333 3.72059 16.8667 3.85588C17 3.99118 17.1556 4.05882 17.3333 4.05882Z" fill="#D7D7D7"/>
</svg>
