<svg width="24" height="14" viewBox="0 0 24 14" fill="none" xmlns="http://www.w3.org/2000/svg">
<path d="M0.337165 0.362071C0.112388 0.583335 0 0.860116 0 1.19242C0 1.52471 0.112388 1.81115 0.337165 2.05172L7.69349 9.35345C7.81609 9.45402 7.94891 9.53448 8.09195 9.59483C8.23499 9.65517 8.38825 9.68534 8.55172 9.68534C8.7152 9.68534 8.87336 9.65517 9.02621 9.59483C9.17905 9.53448 9.30697 9.45402 9.40996 9.35345L13.4559 5.37069L19.8314 11.5862H17.8697C17.5223 11.5862 17.231 11.7021 16.9956 11.9338C16.7602 12.1655 16.6429 12.452 16.6437 12.7931C16.6437 13.1351 16.7614 13.4219 16.9968 13.6536C17.2322 13.8853 17.5232 14.0008 17.8697 14H22.7739C23.1213 14 23.4127 13.8841 23.6481 13.6524C23.8835 13.4207 24.0008 13.1342 24 12.7931V7.96552C24 7.62356 23.8823 7.33672 23.6469 7.105C23.4115 6.87327 23.1205 6.75781 22.7739 6.75862C22.4266 6.75862 22.1352 6.87448 21.8998 7.10621C21.6644 7.33793 21.5471 7.62437 21.5479 7.96552V9.89655L14.3142 2.77586C14.1916 2.65517 14.0587 2.56948 13.9157 2.51879C13.7727 2.4681 13.6194 2.44316 13.4559 2.44397C13.2925 2.44397 13.1392 2.46891 12.9962 2.51879C12.8531 2.56868 12.7203 2.65437 12.5977 2.77586L8.55172 6.75862L2.02299 0.331897C1.79821 0.110632 1.52235 9.53674e-07 1.1954 9.53674e-07C0.868455 9.53674e-07 0.582376 0.120691 0.337165 0.362071Z" fill="#D7D7D7"/>
</svg>
