<svg width="34" height="32" viewBox="0 0 34 32" fill="none" xmlns="http://www.w3.org/2000/svg">
<path d="M16.6667 0C14.478 0 12.3107 0.424127 10.2886 1.24817C8.26652 2.0722 6.4292 3.28001 4.88155 4.80264C1.75595 7.87772 0 12.0484 0 16.3972C0 23.6448 4.78333 29.7938 11.4 31.9746C12.2333 32.1058 12.5 31.5975 12.5 31.1547V28.3836C7.88333 29.3674 6.9 26.1864 6.9 26.1864C6.13333 24.2843 5.05 23.776 5.05 23.776C3.53333 22.7594 5.16667 22.7922 5.16667 22.7922C6.83333 22.9069 7.71667 24.4811 7.71667 24.4811C9.16667 26.9734 11.6167 26.2356 12.5667 25.842C12.7167 24.7762 13.15 24.0547 13.6167 23.6448C9.91667 23.2349 6.03333 21.8247 6.03333 15.5774C6.03333 13.7573 6.66667 12.2979 7.75 11.1337C7.58333 10.7238 7 9.01848 7.91667 6.80485C7.91667 6.80485 9.31667 6.36213 12.5 8.47737C13.8167 8.11663 15.25 7.93626 16.6667 7.93626C18.0833 7.93626 19.5167 8.11663 20.8333 8.47737C24.0167 6.36213 25.4167 6.80485 25.4167 6.80485C26.3333 9.01848 25.75 10.7238 25.5833 11.1337C26.6667 12.2979 27.3 13.7573 27.3 15.5774C27.3 21.8411 23.4 23.2185 19.6833 23.6284C20.2833 24.1367 20.8333 25.137 20.8333 26.6619V31.1547C20.8333 31.5975 21.1 32.1222 21.95 31.9746C28.5667 29.7774 33.3333 23.6448 33.3333 16.3972C33.3333 14.2439 32.9022 12.1117 32.0647 10.1223C31.2271 8.13288 29.9994 6.32526 28.4518 4.80264C26.9041 3.28001 25.0668 2.0722 23.0447 1.24817C21.0226 0.424127 18.8554 0 16.6667 0Z" fill="white"/>
</svg>
