<svg xmlns="http://www.w3.org/2000/svg" width="24" height="14" fill="none"><path fill="#D1CA23" d="M.337.362a1.117 1.117 0 0 0-.337.83c0 .333.112.62.337.86l7.356 7.301c.123.101.256.181.399.242.143.06.296.09.46.09a1.281 1.281 0 0 0 .858-.332l4.046-3.982 6.375 6.215H17.87c-.348 0-.639.116-.874.348a1.154 1.154 0 0 0-.352.86c0 .341.117.628.353.86.235.231.526.347.873.346h4.904c.347 0 .639-.116.874-.348.236-.231.353-.518.352-.859V7.966a1.16 1.16 0 0 0-.353-.861 1.191 1.191 0 0 0-.873-.346c-.347 0-.639.115-.874.347a1.154 1.154 0 0 0-.352.86v1.93l-7.234-7.12a1.085 1.085 0 0 0-.398-.257 1.346 1.346 0 0 0-.46-.075c-.163 0-.317.025-.46.075-.143.05-.276.135-.398.257L8.552 6.759 2.023.332A1.134 1.134 0 0 0 1.195 0C.868 0 .582.12.337.362Z"/></svg>