<svg xmlns="http://www.w3.org/2000/svg" width="24" height="14" fill="none"><path fill="#D1CA23" d="M.337 13.638a1.117 1.117 0 0 1-.337-.83c0-.333.112-.62.337-.86l7.356-7.301c.123-.101.256-.181.399-.242.143-.06.296-.09.46-.09a1.281 1.281 0 0 1 .858.332l4.046 3.982 6.375-6.215H17.87c-.348 0-.639-.116-.874-.348a1.154 1.154 0 0 1-.352-.86c0-.341.117-.628.353-.86.235-.231.526-.347.873-.346h4.904c.347 0 .639.116.874.348.236.231.353.518.352.859v4.827c0 .342-.118.63-.353.861a1.191 1.191 0 0 1-.873.346c-.347 0-.639-.115-.874-.347a1.154 1.154 0 0 1-.352-.86v-1.93l-7.234 7.12c-.122.12-.255.207-.398.257-.143.05-.297.076-.46.075-.163 0-.317-.025-.46-.075a1.064 1.064 0 0 1-.398-.257L8.552 7.241l-6.529 6.427c-.225.221-.5.332-.828.332-.327 0-.613-.12-.858-.362Z"/></svg>