<svg xmlns="http://www.w3.org/2000/svg" width="24" height="24" fill="none"><path fill="#23D154" d="M16.433 17.7a1.48 1.48 0 0 1-.366-.983c0-.366.122-.672.366-.917l2.467-2.467H9.333c-.377 0-.694-.128-.95-.384A1.285 1.285 0 0 1 8 12c0-.378.128-.695.384-.95.256-.257.572-.384.95-.383H18.9L16.433 8.2a1.299 1.299 0 0 1-.4-.95c0-.368.134-.684.4-.95.245-.267.55-.4.918-.4.367 0 .672.122.916.367l4.8 4.8c.133.133.228.277.284.433.056.156.083.322.082.5 0 .178-.027.344-.082.5-.055.156-.15.3-.284.433l-4.8 4.8c-.29.29-.606.417-.951.384a1.394 1.394 0 0 1-.883-.417ZM2.667 24a2.569 2.569 0 0 1-1.884-.784A2.563 2.563 0 0 1 0 21.333V2.667C0 1.933.261 1.305.784.783A2.563 2.563 0 0 1 2.667 0h8c.377 0 .694.128.95.384s.384.572.383.95c0 .377-.128.694-.384.95a1.285 1.285 0 0 1-.95.383h-8v18.666h8c.378 0 .695.128.951.384s.384.573.383.95c0 .377-.128.694-.384.95a1.285 1.285 0 0 1-.95.383h-8Z"/></svg>