<svg xmlns="http://www.w3.org/2000/svg" width="24" height="24" fill="none"><path fill="#D12323" d="M12 21.273c2.373 0 4.445-.784 6.213-2.352 1.769-1.569 2.81-3.546 3.123-5.932a1.4 1.4 0 0 1 .47-.905c.27-.239.583-.358.941-.357.38 0 .694.165.94.495.247.33.347.7.303 1.107-.381 3.069-1.708 5.614-3.98 7.637C17.735 22.989 15.066 24 12 24c-3.045 0-5.704-1.006-7.977-3.016-2.273-2.011-3.61-4.551-4.012-7.62-.045-.432.05-.813.286-1.143.235-.33.554-.495.956-.494.359 0 .672.12.94.359.27.239.426.54.47.903.314 2.386 1.355 4.363 3.124 5.931 1.769 1.569 3.84 2.353 6.213 2.353Z"/><path fill="#D12323" d="M10.641 1.364v9.784L8.122 8.59a1.28 1.28 0 0 0-.94-.41 1.28 1.28 0 0 0-.94.41c-.27.273-.41.59-.42.954-.011.364.118.682.386.955l4.836 4.91c.269.272.582.408.94.408.359 0 .672-.136.941-.409l4.836-4.909c.269-.273.403-.59.403-.955 0-.363-.134-.681-.403-.954a1.295 1.295 0 0 0-.956-.41c-.37 0-.69.137-.958.41l-2.519 2.557V1.364c0-.386-.128-.71-.386-.971A1.29 1.29 0 0 0 11.985 0c-.38 0-.699.13-.957.391a1.33 1.33 0 0 0-.387.973Z"/></svg>