<svg xmlns="http://www.w3.org/2000/svg" width="24" height="24" fill="none"><path fill="#D1CA23" d="M12 21.273c2.373 0 4.445-.784 6.213-2.352 1.769-1.569 2.81-3.546 3.123-5.932a1.4 1.4 0 0 1 .47-.905c.27-.239.583-.358.941-.357.38 0 .694.165.94.495.247.33.347.7.303 1.107-.381 3.069-1.708 5.614-3.98 7.637C17.735 22.989 15.066 24 12 24c-3.045 0-5.704-1.006-7.977-3.016-2.273-2.011-3.61-4.551-4.012-7.62-.045-.432.05-.813.286-1.143.235-.33.554-.495.956-.494.359 0 .672.12.94.359.27.239.426.54.47.903.314 2.386 1.355 4.363 3.124 5.931 1.769 1.569 3.84 2.353 6.213 2.353ZM13.344 4.67v9.784c0 .387-.13.711-.387.973a1.285 1.285 0 0 1-.957.391c-.38 0-.7-.13-.958-.393a1.325 1.325 0 0 1-.385-.97V4.67L8.138 7.227c-.269.273-.588.41-.958.41s-.688-.137-.956-.41a1.318 1.318 0 0 1-.403-.954c0-.364.134-.682.403-.955L11.06.41A1.28 1.28 0 0 1 12 0c.358 0 .672.136.94.41l4.837 4.908c.268.273.397.591.386.955-.01.363-.15.682-.42.954a1.28 1.28 0 0 1-.94.41 1.28 1.28 0 0 1-.94-.41l-2.52-2.557Z"/></svg>