<svg xmlns="http://www.w3.org/2000/svg" width="24" height="24" fill="none"><rect width="24" height="24" fill="#0C0F0C" fill-opacity=".1" rx="6" transform="matrix(1 0 0 -1 0 24)"/><rect width="23" height="23" x=".5" y="-.5" stroke="#23D154" stroke-opacity=".3" rx="5.5" transform="matrix(1 0 0 -1 0 23)"/><path stroke="#23D154" stroke-linecap="round" stroke-linejoin="round" stroke-width="1.333" d="m13.235 7.87 1.66-1.658a.724.724 0 0 1 1.022 0l1.871 1.87a.724.724 0 0 1 0 1.024l-1.659 1.659M13.235 7.87l-7.023 7.023a.723.723 0 0 0-.212.511v1.871a.724.724 0 0 0 .724.724h1.87a.723.723 0 0 0 .512-.212l7.023-7.023M13.235 7.87l2.894 2.894"/></svg>