<svg width="64" height="64" viewBox="0 0 64 64" fill="none" xmlns="http://www.w3.org/2000/svg">
<mask id="mask0_285_133" style="mask-type:alpha" maskUnits="userSpaceOnUse" x="0" y="0" width="64" height="64">
<rect width="64" height="64" rx="32" fill="#0E130F"/>
</mask>
<g mask="url(#mask0_285_133)">
<path d="M54.31 52.8588C51.4671 49.7503 48.0172 47.2695 44.1775 45.5727C40.3378 43.876 36.1916 43 32 43C27.8084 43 23.6622 43.876 19.8225 45.5727C15.9828 47.2695 12.5329 49.7503 9.69 52.8588C9.25108 53.3486 9.00556 53.984 9 54.6443V65.3574C9.0093 66.0616 9.29301 66.7336 9.78969 67.2282C10.2864 67.7228 10.9561 68.0001 11.6538 68H52.3462C53.05 68 53.725 67.7178 54.2227 67.2156C54.7204 66.7133 55 66.032 55 65.3217V54.6086C54.9859 53.9606 54.7409 53.3394 54.31 52.8588Z" fill="#2393D1"/>
<path d="M32.5 40C39.4036 40 45 34.4036 45 27.5C45 20.5964 39.4036 15 32.5 15C25.5964 15 20 20.5964 20 27.5C20 34.4036 25.5964 40 32.5 40Z" fill="#2393D1"/>
</g>
</svg>
