<svg xmlns="http://www.w3.org/2000/svg" width="24" height="23" fill="none"><path fill="#D1CA23" d="M1.333 23c-.377 0-.694-.13-.95-.39A1.314 1.314 0 0 1 0 21.647c0-.383.128-.705.384-.965s.572-.389.95-.388h13.333c.377 0 .694.13.95.39s.384.58.383.963c0 .383-.128.705-.384.965s-.572.389-.95.388H1.334Zm16-9.47c-1.844 0-3.417-.66-4.717-1.98-1.3-1.32-1.95-2.915-1.95-4.785 0-1.872.65-3.467 1.951-4.787C13.917.658 15.49-.001 17.333 0c1.845 0 3.417.66 4.718 1.98C23.35 3.298 24 4.893 24 6.764c0 1.871-.65 3.467-1.95 4.786-1.301 1.32-2.873 1.98-4.717 1.978Zm-16-1.353c-.377 0-.694-.13-.95-.39A1.314 1.314 0 0 1 0 10.823c0-.383.128-.704.384-.964s.572-.39.95-.388H8.4c.156.496.333.97.533 1.42.2.451.445.88.734 1.286H1.333Zm0 5.411c-.377 0-.694-.13-.95-.39A1.314 1.314 0 0 1 0 16.236c0-.383.128-.705.384-.964.256-.26.572-.39.95-.389h11.2c.51.316 1.055.581 1.633.796a8.664 8.664 0 0 0 1.833.456v.101c0 .384-.128.705-.384.965s-.572.39-.95.388H1.334Zm16-6.765a.635.635 0 0 0 .467-.202.654.654 0 0 0 .2-.474V6.088a.654.654 0 0 0-.2-.473.635.635 0 0 0-.933 0 .653.653 0 0 0-.2.473v4.06c0 .18.066.337.2.473a.635.635 0 0 0 .466.202Zm0-6.764a.635.635 0 0 0 .467-.203.654.654 0 0 0 .2-.474.654.654 0 0 0-.2-.473.635.635 0 0 0-.933 0 .653.653 0 0 0-.2.473c0 .18.066.339.2.474a.635.635 0 0 0 .466.203Z"/></svg>