<svg width="16" height="16" viewBox="0 0 16 16" fill="none" xmlns="http://www.w3.org/2000/svg">
<path d="M8 10.4C8.648 10.4 9.2 10.16 9.688 9.688C10.16 9.2 10.4 8.648 10.4 8C10.4 7.352 10.16 6.8 9.688 6.312C9.2 5.84 8.648 5.6 8 5.6C7.352 5.6 6.8 5.84 6.312 6.312C5.84 6.8 5.6 7.352 5.6 8C5.6 8.648 5.84 9.2 6.312 9.688C6.8 10.16 7.352 10.4 8 10.4ZM8 0C10.2 0 12.08 0.8 13.64 2.36C15.2 3.92 16 5.8 16 8V9.16C16 9.96 15.72 10.64 15.2 11.2C14.64 11.736 14 12 13.2 12C12.24 12 11.448 11.6 10.848 10.8C10.048 11.6 9.104 12 8 12C6.904 12 5.96 11.6 5.168 10.832C4.4 10.04 4 9.104 4 8C4 6.904 4.4 5.96 5.168 5.168C5.96 4.4 6.904 4 8 4C9.104 4 10.04 4.4 10.832 5.168C11.6 5.96 12 6.904 12 8V9.16C12 9.488 12.128 9.776 12.368 10.024C12.608 10.272 12.888 10.4 13.2 10.4C13.536 10.4 13.816 10.272 14.056 10.024C14.296 9.776 14.4 9.488 14.4 9.16V8C14.4 6.248 13.784 4.744 12.52 3.48C11.256 2.216 9.752 1.6 8 1.6C6.248 1.6 4.744 2.216 3.48 3.48C2.216 4.744 1.6 6.248 1.6 8C1.6 9.752 2.216 11.256 3.48 12.52C4.744 13.784 6.248 14.4 8 14.4H12V16H8C5.8 16 3.92 15.2 2.36 13.64C0.8 12.08 0 10.2 0 8C0 5.8 0.8 3.92 2.36 2.36C3.92 0.8 5.8 0 8 0Z" fill="#23D154" fill-opacity="0.3"/>
</svg>
