<svg width="16" height="12" viewBox="0 0 16 12" fill="none" xmlns="http://www.w3.org/2000/svg">
<path d="M2.4 8.25H3.6V6.75H5.6C5.82667 6.75 6.0168 6.678 6.1704 6.534C6.324 6.39 6.40053 6.212 6.4 6V4.5C6.4 4.2875 6.3232 4.10925 6.1696 3.96525C6.016 3.82125 5.82613 3.7495 5.6 3.75H2.4V8.25ZM7.4 8.25H8.6V3.75H7.4V8.25ZM9.6 8.25H10.6V5.625L12.64 8.25H13.6V3.75H12.6V6.375L10.6 3.75H9.6V8.25ZM3.6 5.625V4.875H5.2V5.625H3.6ZM1.6 12C1.16 12 0.783201 11.853 0.469601 11.559C0.156001 11.265 -0.000531975 10.912 1.35823e-06 10.5V1.5C1.35823e-06 1.0875 0.156801 0.734251 0.470401 0.440251C0.784001 0.146251 1.16053 -0.000498726 1.6 1.27335e-06H14.4C14.84 1.27335e-06 15.2168 0.147001 15.5304 0.441001C15.844 0.735001 16.0005 1.088 16 1.5V10.5C16 10.9125 15.8432 11.2657 15.5296 11.5597C15.216 11.8537 14.8395 12.0005 14.4 12H1.6ZM1.6 10.5H14.4V1.5H1.6V10.5Z" fill="#23D154" fill-opacity="0.3"/>
</svg>
