<svg width="24" height="24" viewBox="0 0 24 24" fill="none" xmlns="http://www.w3.org/2000/svg">
<rect x="0.5" y="-0.5" width="23" height="23" rx="5.5" transform="matrix(1 0 0 -1 0 23)" fill="#0C0D0F" fill-opacity="0.1" stroke="white"/>
<path d="M13.2351 7.87084L14.8941 6.21183C15.0298 6.0762 15.2138 6 15.4056 6C15.5975 6 15.7815 6.0762 15.9172 6.21183L17.7882 8.08283C17.9238 8.21851 18 8.40251 18 8.59436C18 8.78621 17.9238 8.9702 17.7882 9.10588L16.1292 10.7649M13.2351 7.87084L6.21199 14.894C6.07629 15.0296 6.00004 15.2136 6 15.4055V17.2765C6 17.4684 6.07623 17.6524 6.21191 17.7881C6.3476 17.9238 6.53162 18 6.72351 18H8.59451C8.78638 18 8.97038 17.9237 9.10603 17.788L16.1292 10.7649M13.2351 7.87084L16.1292 10.7649" stroke="white" stroke-width="1.33333" stroke-linecap="round" stroke-linejoin="round"/>
</svg>
